{
   "accessors" : [
      {
         "bufferView" : 2,
         "byteOffset" : 0,
         "componentType" : 5126,
         "count" : 2366,
         "max" : [ 1, 1, 1, 1 ],
         "min" : [ 0, 0.006584956776350737, 0.006584956776350737, 1 ],
         "name" : "accessor_color_m0-PolyPaper21_-24978",
         "type" : "VEC4"
      },
      {
         "bufferView" : 2,
         "byteOffset" : 37856,
         "componentType" : 5126,
         "count" : 104,
         "max" : [ 1, 1, 1, 1 ],
         "min" : [ 1, 1, 1, 1 ],
         "name" : "accessor_color_m1-PolyGlass24_-24984",
         "type" : "VEC4"
      },
      {
         "bufferView" : 0,
         "byteOffset" : 0,
         "componentType" : 5123,
         "count" : 3198,
         "max" : [ 2365 ],
         "min" : [ 0 ],
         "name" : "accessor_indices_0_m0-PolyPaper21_-24978",
         "type" : "SCALAR"
      },
      {
         "bufferView" : 0,
         "byteOffset" : 6396,
         "componentType" : 5123,
         "count" : 162,
         "max" : [ 103 ],
         "min" : [ 0 ],
         "name" : "accessor_indices_0_m1-PolyGlass24_-24984",
         "type" : "SCALAR"
      },
      {
         "bufferView" : 1,
         "byteOffset" : 28392,
         "componentType" : 5126,
         "count" : 2366,
         "max" : [ 1, 1, 1 ],
         "min" : [ -1, -1, -1 ],
         "name" : "accessor_normal_m0-PolyPaper21_-24978",
         "type" : "VEC3"
      },
      {
         "bufferView" : 1,
         "byteOffset" : 58032,
         "componentType" : 5126,
         "count" : 104,
         "max" : [ 0.9979459000000001, 1, 0.997946 ],
         "min" : [ -0.997946, -1, -0.997946 ],
         "name" : "accessor_normal_m1-PolyGlass24_-24984",
         "type" : "VEC3"
      },
      {
         "bufferView" : 1,
         "byteOffset" : 0,
         "componentType" : 5126,
         "count" : 2366,
         "max" : [ 1.399985, 1.007833, 0.03994539 ],
         "min" : [ 0.7119411, -0.2600105, -0.8200558 ],
         "name" : "accessor_position_m0-PolyPaper21_-24978",
         "type" : "VEC3"
      },
      {
         "bufferView" : 1,
         "byteOffset" : 56784,
         "componentType" : 5126,
         "count" : 104,
         "max" : [ 1.172373, 1.097833, -0.5276664 ],
         "min" : [ 0.9875969, 0.8099899, -0.7124424 ],
         "name" : "accessor_position_m1-PolyGlass24_-24984",
         "type" : "VEC3"
      }
   ],
   "asset" : {
      "copyright" : "Unknown",
      "extras" : {
         "GOOGLE_processor_version" : 294144208
      },
      "generator" : "glTF 1-to-2 Upgrader for Google Blocks",
      "version" : "2.0"
   },
   "bufferViews" : [
      {
         "buffer" : 0,
         "byteLength" : 6720,
         "byteOffset" : 0,
         "name" : "ushortBufferView",
         "target" : 34963
      },
      {
         "buffer" : 0,
         "byteLength" : 59280,
         "byteOffset" : 6720,
         "byteStride" : 12,
         "name" : "vec3BufferView",
         "target" : 34962
      },
      {
         "buffer" : 0,
         "byteLength" : 39520,
         "byteOffset" : 66000,
         "byteStride" : 16,
         "name" : "vec4BufferView",
         "target" : 34962
      }
   ],
   "buffers" : [
      {
         "byteLength" : 105520,
         "name" : "model",
         "uri" : "model.bin"
      }
   ],
   "cameras" : [
      {
         "perspective" : {
            "yfov" : 0.7853981633974483,
            "znear" : 0.1000000014901161
         },
         "type" : "perspective"
      }
   ],
   "extensions" : {
      "KHR_lights_punctual" : {
         "lights" : [
            {
               "color" : [ 1, 0.9333333333333333, 0.8666666666666667 ],
               "intensity" : 0.25,
               "name" : "headLight",
               "type" : "directional"
            },
            {
               "color" : [ 1, 0.9333333333333333, 0.8666666666666667 ],
               "intensity" : 0.324999988079071,
               "name" : "keyLight",
               "type" : "directional"
            }
         ]
      }
   },
   "extensionsUsed" : [ "GOOGLE_backgrounds", "GOOGLE_camera_settings", "KHR_lights_punctual" ],
   "extras" : {
      "GOOGLE_initial_camera_motion" : {
         "motionPath" : "FULL_ROTATION"
      },
      "GOOGLE_lighting_rig" : {
         "disableShadows" : false
      }
   },
   "materials" : [
      {
         "alphaMode" : "OPAQUE",
         "doubleSided" : false,
         "name" : "BlocksPaper",
         "pbrMetallicRoughness" : {
            "baseColorFactor" : [ 1, 1, 1, 1 ],
            "metallicFactor" : 0,
            "roughnessFactor" : 0.6
         }
      },
      {
         "alphaMode" : "BLEND",
         "doubleSided" : false,
         "name" : "BlocksGlass",
         "pbrMetallicRoughness" : {
            "baseColorFactor" : [ 0.2, 0.2, 1, 0.3 ],
            "metallicFactor" : 1,
            "roughnessFactor" : 0.4
         }
      },
      {
         "alphaMode" : "OPAQUE",
         "doubleSided" : true,
         "name" : "BlocksGem",
         "pbrMetallicRoughness" : {
            "baseColorFactor" : [ 1, 0.4, 1, 1 ],
            "metallicFactor" : 0,
            "roughnessFactor" : 0.1
         }
      }
   ],
   "meshes" : [
      {
         "name" : "mesh_m0-PolyPaper21_-24978",
         "primitives" : [
            {
               "attributes" : {
                  "COLOR_0" : 0,
                  "NORMAL" : 4,
                  "POSITION" : 6
               },
               "indices" : 2,
               "material" : 0,
               "mode" : 4
            }
         ]
      },
      {
         "name" : "mesh_m1-PolyGlass24_-24984",
         "primitives" : [
            {
               "attributes" : {
                  "COLOR_0" : 1,
                  "NORMAL" : 5,
                  "POSITION" : 7
               },
               "indices" : 3,
               "material" : 1,
               "mode" : 4
            }
         ]
      }
   ],
   "nodes" : [
      {
         "mesh" : 1,
         "name" : "node_MeshObject-34567168-PolyGlass24"
      },
      {
         "mesh" : 0,
         "name" : "node_MeshObject-606646272-PolyPaper21"
      },
      {
         "children" : [ 3 ]
      },
      {
         "children" : [ 4 ],
         "extras" : {
            "isTransformNode" : 1
         },
         "translation" : [ 1.087798233657116, 0.4079839024797623, -0.3867798851845859 ]
      },
      {
         "children" : [ 1, 0 ],
         "translation" : [ -1.087798233657116, -0.4079839024797623, 0.3867798851845859 ]
      },
      {
         "camera" : 0,
         "children" : [ 6 ],
         "rotation" : [
            0.07221209621589551,
            0.8700272155853991,
            0.1339808828334728,
            -0.4689212943938326
         ],
         "translation" : [ -0.9706254392585327, 1.141393720375173, -1.786448346445386 ]
      },
      {
         "extensions" : {
            "KHR_lights_punctual" : {
               "light" : 0
            }
         },
         "extras" : {
            "isHeadLight" : 1
         },
         "name" : "headLightNode",
         "translation" : [ -0.9273617467282761, 0.463680873364138, 0.463680873364138 ]
      },
      {
         "extensions" : {
            "KHR_lights_punctual" : {
               "light" : 1
            }
         },
         "extras" : {
            "isKeyLight" : 1
         },
         "name" : "keyLightNode",
         "rotation" : [ -0.7505326882858236, -0.3752663441429118, 0, 0.5439447166468927 ],
         "scale" : [ 0, 0, 0.9366353641955588 ],
         "translation" : [ 0.06015367859485021, 2.199681847160668, -1.331432561656069 ]
      }
   ],
   "scene" : 0,
   "scenes" : [
      {
         "extensions" : {
            "GOOGLE_backgrounds" : {
               "color" : [ 0.9372549019607843, 0.4235294117647059, 0 ]
            },
            "GOOGLE_camera_settings" : {
               "pivot" : [ 1.098513207866128, 0.3599258819805608, -0.4245341309578611 ]
            }
         },
         "extras" : {
            "GOOGLE_camera_index" : {
               "cameraIndex" : 0,
               "nodeIndex" : 5
            },
            "GOOGLE_geometry_data" : {
               "stats" : {
                  "centroid" : [ 0.996789042790409, 0.3264111187695506, -0.3947971974605098 ],
                  "radius" : 0.9273617467282761,
                  "stdev" : 0.4439687845825972
               },
               "visualCenterPoint" : [ 1.087798233657116, 0.4079839024797623, -0.3867798851845859 ]
            },
            "GOOGLE_hemi_light" : {
               "groundColor" : [ 0.9372549019607843, 0.4235294117647059, 0 ]
            }
         },
         "name" : "defaultScene",
         "nodes" : [ 2, 5, 7 ]
      }
   ]
}
